<svg width="178" height="40" viewBox="0 0 178 40" fill="none" xmlns="http://www.w3.org/2000/svg">
<path d="M13.1852 23.6383L6.4683 31.8621C5.95161 32.508 5.21964 32.8955 4.40156 32.9816C4.31545 32.9816 4.22933 32.9816 4.14322 32.9816C3.41125 32.9816 2.72234 32.7233 2.20565 32.2497C0.957001 31.1732 0.957001 29.0634 2.03343 27.7287L2.72234 26.9106L2.80845 26.8245L1.8612 26.0495L1.73203 26.1786L1.04312 26.9967C-0.420823 28.8051 -0.377765 31.733 1.38757 33.1969L1.43063 33.24C2.20565 33.8428 3.15291 34.1872 4.10016 34.1872C4.22933 34.1872 4.40156 34.1872 4.53073 34.1442C5.65021 34.015 6.68358 33.4553 7.41555 32.5941L14.1324 24.3702V22.7341C13.788 23.0355 13.4866 23.2938 13.1852 23.6383Z" fill="url(#paint0_linear_4080_20246)"/>
<path d="M12.3241 9.47251L16.9312 13.2615L17.4048 13.649C18.7826 13.606 20.0743 13.0462 21.0646 12.099L19.2132 10.592C18.9548 10.3767 18.9118 9.98919 19.1271 9.73085C19.2562 9.60168 19.4285 9.51556 19.6007 9.51556C19.7299 9.51556 19.859 9.55862 19.9882 9.64474L21.8396 11.1517C22.83 9.64474 23.0022 7.70717 22.2702 6.071C21.5813 4.39178 20.0743 3.18619 18.309 2.84173C17.9645 2.75562 17.577 2.75562 17.2325 2.75562C15.8117 2.75562 14.4338 3.31536 13.4005 4.30567L18.0937 8.05163C18.352 8.26691 18.3951 8.65442 18.1798 8.91277C18.0506 9.04194 17.8784 9.12805 17.7062 9.12805C17.577 9.12805 17.4478 9.08499 17.3187 8.99888L12.6254 5.16681C11.8504 6.32935 11.5921 7.70717 11.8504 9.08499L12.3241 9.47251Z" fill="url(#paint1_linear_4080_20246)"/>
<path d="M15.0366 13.3907L11.506 10.4628L11.4199 10.592L3.97099 21.4424L3.88488 21.5285L6.81275 23.8966L6.85581 23.8105L14.1324 16.2755L16.027 14.3379L16.1131 14.2518L15.0366 13.3907Z" fill="url(#paint2_linear_4080_20246)"/>
<path d="M3.58348 25.8342L4.9613 24.1119L4.05711 23.3369L2.63622 25.0591L3.58348 25.8342Z" fill="url(#paint3_linear_4080_20246)"/>
<path d="M15.8547 31.9483L12.9268 35.5651C12.4102 36.1678 12.1949 36.9859 12.2379 37.804C12.324 38.6221 12.7116 39.3541 13.3574 39.8708C13.4866 39.9569 13.6158 39.9999 13.7449 39.9999C13.9172 39.9999 14.0894 39.9138 14.2186 39.7846C14.4338 39.5263 14.3908 39.1388 14.1324 38.9235C13.7449 38.6221 13.5296 38.1915 13.4866 37.6748C13.4435 37.2012 13.5727 36.7276 13.8741 36.3401L17.4048 31.9052C17.4048 31.9052 15.8547 31.9052 15.8547 31.9483Z" fill="url(#paint4_linear_4080_20246)"/>
<path d="M62.4424 31.0441L57.577 13.9074C57.4908 13.606 57.2325 13.3907 56.888 13.3907H44.0571C43.7557 13.3907 43.4543 13.606 43.3681 13.9074L38.9333 31.0441C38.8041 31.4746 39.1486 31.9483 39.6222 31.9483H47.4155C47.803 31.9483 48.1044 31.6469 48.1044 31.3024L48.1475 30.4843C48.1905 30.0968 48.4919 29.8385 48.8364 29.8385H52.4962C52.8407 29.8385 53.1421 30.0968 53.1851 30.4413L53.2713 31.3024C53.3143 31.6469 53.6157 31.9052 53.9602 31.9052H61.7104C62.2702 31.9483 62.5716 31.4746 62.4424 31.0441ZM50.8601 24.5425H50.3434C49.7406 24.5425 49.267 23.9827 49.3961 23.423L50.3003 18.0409H50.6448L51.8504 23.3369C51.9796 23.9827 51.5059 24.5425 50.8601 24.5425Z" fill="url(#paint5_linear_4080_20246)"/>
<path d="M85.4779 27.3842C85.4779 23.8105 84.4876 23.423 79.7083 23.2507V23.0785C84.1431 22.6049 85.8224 21.0979 85.8224 18.3422C85.8224 15.2852 84.057 13.3907 77.254 13.3907H64.3369C63.9494 13.3907 63.648 13.6921 63.648 14.0796V31.2163C63.648 31.6038 63.9494 31.9052 64.3369 31.9052H72.5608C72.9483 31.9052 73.2497 31.6038 73.2497 31.2163V26.3078H74.3692C75.1873 26.3078 75.5317 26.6953 75.5317 27.8578V29.3218C75.5317 30.958 76.0054 31.9052 77.8999 31.9052H86.5543V31.5607C85.564 31.2163 85.4779 30.3121 85.4779 27.3842ZM74.7137 21.6576C74.0678 21.959 73.3358 21.4854 73.3358 20.7534V18.4284C73.3358 17.7825 73.9817 17.3089 74.6275 17.4811C75.3164 17.7395 75.6609 18.2992 75.6609 19.3326C75.6609 20.6673 75.3595 21.3562 74.7137 21.6576Z" fill="url(#paint6_linear_4080_20246)"/>
<path d="M110.451 31.0441L105.586 13.9074C105.499 13.606 105.241 13.3907 104.897 13.3907H92.0656C91.7642 13.3907 91.4628 13.606 91.3767 13.9074L86.8988 31.0441C86.7696 31.4746 87.1141 31.9483 87.5877 31.9483H95.6824C96.0699 31.9483 96.3713 31.6469 96.3713 31.3024L96.4144 30.4843C96.4144 30.0968 96.7588 29.8385 97.1033 29.8385H100.462C100.806 29.8385 101.108 30.0968 101.151 30.4413L101.237 31.3024C101.28 31.6469 101.581 31.9052 101.926 31.9052H109.676C110.236 31.9483 110.58 31.4746 110.451 31.0441ZM98.8686 24.5425H98.3519C97.7491 24.5425 97.2755 23.9827 97.4047 23.423L98.3089 18.0409H98.6533L99.8589 23.3369C99.945 23.9827 99.4714 24.5425 98.8686 24.5425Z" fill="url(#paint7_linear_4080_20246)"/>
<path d="M121.818 12.831C113.896 12.831 109.977 17.395 109.977 22.7341C109.977 28.0731 113.939 32.4649 121.818 32.4649C129.74 32.4649 133.659 27.9009 133.659 22.5618C133.659 17.2228 129.697 12.831 121.818 12.831ZM121.818 25.8342C120.397 25.8342 119.924 24.6716 119.924 22.6049C119.924 20.5382 120.397 19.3326 121.818 19.3326C123.196 19.3326 123.713 20.452 123.713 22.5618C123.713 24.6716 123.196 25.8342 121.818 25.8342Z" fill="url(#paint8_linear_4080_20246)"/>
<path d="M153.723 21.916C153.594 21.7007 153.594 21.3993 153.723 21.184L158.072 14.4241C158.373 13.9504 158.029 13.3476 157.469 13.3476H148.47C148.169 13.3476 147.911 13.5199 147.824 13.7782L145.456 19.7631H145.069V14.0796C145.069 13.6921 144.767 13.3907 144.38 13.3907H135.855C135.467 13.3907 135.166 13.6921 135.166 14.0796V31.2163C135.166 31.6038 135.467 31.9052 135.855 31.9052H144.38C144.767 31.9052 145.069 31.6038 145.069 31.2163V27.2981C145.069 27.0828 145.155 26.9106 145.327 26.7814L145.672 26.48C146.059 26.1786 146.619 26.3078 146.791 26.7384L148.729 31.4746C148.815 31.733 149.116 31.9052 149.374 31.9052H158.416C158.976 31.9052 159.278 31.3024 159.019 30.8288L153.723 21.916Z" fill="url(#paint9_linear_4080_20246)"/>
<path d="M177.103 26.437H171.204C170.817 26.437 170.515 26.1356 170.515 25.7481V25.6619C170.515 25.2744 170.817 24.973 171.204 24.973H176.5C176.888 24.973 177.189 24.6716 177.189 24.2841V20.8826C177.189 20.4951 176.888 20.1937 176.5 20.1937H171.204C170.817 20.1937 170.515 19.8923 170.515 19.5048C170.515 19.1173 170.817 18.8159 171.204 18.8159H176.587C176.974 18.8159 177.275 18.5145 177.275 18.127V14.2088C177.275 13.8213 176.974 13.5199 176.587 13.5199H161.258C160.871 13.5199 160.569 13.8213 160.569 14.2088V31.3455C160.569 31.733 160.871 32.0344 161.258 32.0344H177.103C177.491 32.0344 177.792 31.733 177.792 31.3455V27.1689C177.792 26.7384 177.491 26.437 177.103 26.437Z" fill="url(#paint10_linear_4080_20246)"/>
<path d="M38.0291 30.8718L32.7331 21.916C32.6039 21.7007 32.6039 21.3993 32.7331 21.184L37.0818 14.4241C37.3832 13.9504 37.0388 13.3476 36.479 13.3476H27.4801C27.1787 13.3476 26.9204 13.5199 26.8343 13.7782L24.4661 19.7631H24.0786V14.0796C24.0786 13.6921 23.7772 13.3907 23.3897 13.3907H21.5813C20.3757 14.381 18.8687 14.9407 17.3187 14.9407L17.0603 15.1991L14.1324 18.2131V31.3024C14.1324 31.4746 14.2186 31.6469 14.3047 31.776C14.4338 31.9052 14.6061 32.0344 14.8214 32.0344H23.3466C23.7342 32.0344 24.0356 31.733 24.0356 31.3455V27.4273C24.0356 27.212 24.1217 27.0398 24.2939 26.9106L24.6384 26.6092C24.9828 26.3078 25.5856 26.437 25.7578 26.8675L27.6954 31.6038C27.7815 31.8621 28.0399 32.0344 28.3413 32.0344H37.3832C37.943 31.9483 38.2874 31.3455 38.0291 30.8718Z" fill="url(#paint11_linear_4080_20246)"/>
<path d="M128.104 1.63617H130.343V7.87943H131.85V1.63617H134.046V0.215285H128.104V1.63617Z" fill="#191919"/>
<path d="M137.103 0.215285H135.596V7.87943H137.103V0.215285Z" fill="#191919"/>
<path d="M144.466 5.25295L140.677 0.215285H139.213V7.87943H140.72V2.88482L144.509 7.87943H145.93V0.215285H144.466V5.25295Z" fill="#191919"/>
<path d="M152.087 5.29601H153.508C153.25 6.15715 152.561 6.63078 151.527 6.63078C149.805 6.63078 149.03 5.29601 149.03 4.04736C149.03 2.75565 149.891 1.42088 151.441 1.42088C152.302 1.42088 153.034 1.85145 153.207 2.49731L153.25 2.71259H154.757L154.714 2.36814C154.498 0.990311 153.12 0 151.441 0C148.901 0 147.523 2.06674 147.523 4.04736C147.523 6.02798 148.901 8.0086 151.484 8.0086C153.336 8.0086 154.714 6.97523 155.058 5.25295H155.876V3.91819H152.044L152.087 5.29601Z" fill="#191919"/>
<path d="M175.639 0.215285L174.089 3.22928L172.195 0.215285H170.472L173.314 4.82238L171.764 7.87943H173.4L177.275 0.215285H175.639Z" fill="#191919"/>
<path d="M161.43 4.99461C162.205 4.52099 162.679 3.7029 162.679 2.79871C162.679 1.37782 161.56 0.258342 160.139 0.215285H157.168V7.87943H158.675V5.33907H159.923L161.086 7.87943H162.765L161.43 4.99461ZM160.139 3.91819H158.675V1.63617H160.139C160.785 1.63617 161.301 2.15285 161.301 2.79871C161.258 3.4015 160.742 3.91819 160.139 3.91819Z" fill="#191919"/>
<path d="M167.846 0.258342V0.172228H166.511L163.842 7.83637H165.478L166.038 6.11409H168.277L168.836 7.83637H170.472L167.846 0.258342ZM166.339 4.9085L167.157 2.45425L167.975 4.9085H166.339Z" fill="#191919"/>
<path d="M125.263 3.48762L123.885 3.14316C123.325 3.01399 123.024 2.75565 123.024 2.32508C123.024 1.76534 123.497 1.42088 124.229 1.42088C125.004 1.42088 125.478 1.80839 125.607 2.32508H127.157C126.899 1.03337 125.908 0.129171 124.186 0.129171C122.593 0.129171 121.43 1.07643 121.43 2.45425C121.43 3.7029 122.292 4.26264 123.368 4.52099L124.746 4.82238C125.392 4.95156 125.65 5.2099 125.65 5.68352C125.65 6.28632 125.133 6.63078 124.358 6.63078C123.626 6.63078 123.067 6.32938 122.851 5.64047H121.215C121.474 7.10441 122.679 7.92249 124.358 7.92249C125.951 7.92249 127.157 7.01829 127.157 5.55435C127.243 4.47793 126.511 3.74596 125.263 3.48762Z" fill="#191919"/>
<defs>
<linearGradient id="paint0_linear_4080_20246" x1="0" y1="40.0002" x2="177.792" y2="40.0002" gradientUnits="userSpaceOnUse">
<stop stop-color="#FFA33C"/>
<stop offset="0.489583" stop-color="#F34488"/>
</linearGradient>
<linearGradient id="paint1_linear_4080_20246" x1="0" y1="40.0002" x2="177.792" y2="40.0002" gradientUnits="userSpaceOnUse">
<stop stop-color="#FFA33C"/>
<stop offset="0.489583" stop-color="#F34488"/>
</linearGradient>
<linearGradient id="paint2_linear_4080_20246" x1="0" y1="40.0002" x2="177.792" y2="40.0002" gradientUnits="userSpaceOnUse">
<stop stop-color="#FFA33C"/>
<stop offset="0.489583" stop-color="#F34488"/>
</linearGradient>
<linearGradient id="paint3_linear_4080_20246" x1="0" y1="40.0002" x2="177.792" y2="40.0002" gradientUnits="userSpaceOnUse">
<stop stop-color="#FFA33C"/>
<stop offset="0.489583" stop-color="#F34488"/>
</linearGradient>
<linearGradient id="paint4_linear_4080_20246" x1="0" y1="40.0002" x2="177.792" y2="40.0002" gradientUnits="userSpaceOnUse">
<stop stop-color="#FFA33C"/>
<stop offset="0.489583" stop-color="#F34488"/>
</linearGradient>
<linearGradient id="paint5_linear_4080_20246" x1="0" y1="40.0002" x2="177.792" y2="40.0002" gradientUnits="userSpaceOnUse">
<stop stop-color="#FFA33C"/>
<stop offset="0.489583" stop-color="#F34488"/>
</linearGradient>
<linearGradient id="paint6_linear_4080_20246" x1="0" y1="40.0002" x2="177.792" y2="40.0002" gradientUnits="userSpaceOnUse">
<stop stop-color="#FFA33C"/>
<stop offset="0.489583" stop-color="#F34488"/>
</linearGradient>
<linearGradient id="paint7_linear_4080_20246" x1="0" y1="40.0002" x2="177.792" y2="40.0002" gradientUnits="userSpaceOnUse">
<stop stop-color="#FFA33C"/>
<stop offset="0.489583" stop-color="#F34488"/>
</linearGradient>
<linearGradient id="paint8_linear_4080_20246" x1="0" y1="40.0002" x2="177.792" y2="40.0002" gradientUnits="userSpaceOnUse">
<stop stop-color="#FFA33C"/>
<stop offset="0.489583" stop-color="#F34488"/>
</linearGradient>
<linearGradient id="paint9_linear_4080_20246" x1="0" y1="40.0002" x2="177.792" y2="40.0002" gradientUnits="userSpaceOnUse">
<stop stop-color="#FFA33C"/>
<stop offset="0.489583" stop-color="#F34488"/>
</linearGradient>
<linearGradient id="paint10_linear_4080_20246" x1="0" y1="40.0002" x2="177.792" y2="40.0002" gradientUnits="userSpaceOnUse">
<stop stop-color="#FFA33C"/>
<stop offset="0.489583" stop-color="#F34488"/>
</linearGradient>
<linearGradient id="paint11_linear_4080_20246" x1="0" y1="40.0002" x2="177.792" y2="40.0002" gradientUnits="userSpaceOnUse">
<stop stop-color="#FFA33C"/>
<stop offset="0.489583" stop-color="#F34488"/>
</linearGradient>
</defs>
</svg>
